<svg width="600" height="400" viewBox="0 0 600 400" fill="none" xmlns="http://www.w3.org/2000/svg" role="img" aria-label="Placeholder illustration">
  <defs>
    <linearGradient id="bg" x1="0" y1="0" x2="1" y2="1">
      <stop offset="0%" stop-color="#F8FAFC" />
      <stop offset="100%" stop-color="#E2E8F0" />
    </linearGradient>
    <linearGradient id="accent" x1="0" y1="0" x2="1" y2="1">
      <stop offset="0%" stop-color="#F59E0B" />
      <stop offset="100%" stop-color="#FDBA74" />
    </linearGradient>
  </defs>

  <rect width="600" height="400" rx="24" fill="url(#bg)" />

  <rect x="48" y="56" width="260" height="18" rx="9" fill="#CBD5E1" />
  <rect x="48" y="86" width="320" height="18" rx="9" fill="#E2E8F0" />
  <rect x="48" y="116" width="200" height="18" rx="9" fill="#E2E8F0" />

  <rect x="48" y="180" width="220" height="20" rx="10" fill="#CBD5E1" />
  <rect x="48" y="214" width="300" height="20" rx="10" fill="#E2E8F0" />
  <rect x="48" y="248" width="260" height="20" rx="10" fill="#E2E8F0" />

  <circle cx="470" cy="150" r="64" fill="#FDE68A" />
  <circle cx="500" cy="120" r="28" fill="url(#accent)" />

  <rect x="400" y="232" width="150" height="90" rx="16" fill="#FFFFFF" stroke="#E2E8F0" stroke-width="2" />
  <path d="M420 282h110" stroke="#CBD5E1" stroke-width="8" stroke-linecap="round" />
  <path d="M420 262h72" stroke="#E2E8F0" stroke-width="8" stroke-linecap="round" />

  <text x="48" y="340" font-family="Manrope, Arial, sans-serif" font-size="18" fill="#94A3B8">600 x 400</text>
</svg>
